<svg xmlns="http://www.w3.org/2000/svg" xmlns:xlink="http://www.w3.org/1999/xlink" width="1080" zoomAndPan="magnify" viewBox="0 0 810 809.999993" height="1080" preserveAspectRatio="xMidYMid meet" version="1.0"><path fill="#000000" d="M 405 0 C 181.316406 0 0 181.316406 0 405 C 0 628.683594 181.316406 810 405 810 C 628.683594 810 810 628.683594 810 405 C 810 181.316406 628.304688 0 405 0 Z M 405 762.285156 C 207.652344 762.285156 47.332031 602.347656 47.332031 404.617188 C 47.332031 207.269531 207.269531 46.949219 405 46.949219 C 602.726562 46.949219 762.667969 206.890625 762.667969 404.617188 C 762.285156 602.347656 602.347656 762.285156 405 762.285156 Z M 405 762.285156 " fill-opacity="1" fill-rule="nonzero"/><path fill="#000000" d="M 156.886719 248.496094 L 156.886719 576.773438 L 656.933594 576.773438 L 656.933594 248.496094 Z M 630.210938 550.050781 L 183.605469 550.050781 L 183.605469 275.214844 L 630.210938 275.214844 Z M 630.210938 550.050781 " fill-opacity="1" fill-rule="nonzero"/><path fill="#000000" d="M 167.191406 271.78125 L 405 461.875 L 644.335938 272.925781 L 631.355469 259.949219 L 611.125 259.949219 L 406.527344 422.558594 L 198.492188 257.65625 L 157.265625 247.734375 Z M 167.191406 271.78125 " fill-opacity="1" fill-rule="nonzero"/><path fill="#000000" d="M 166.429688 549.289062 L 356.140625 405 L 376.753906 423.324219 L 191.621094 563.03125 Z M 166.429688 549.289062 " fill-opacity="1" fill-rule="nonzero"/><path fill="#000000" d="M 427.140625 423.324219 L 621.433594 563.03125 L 644.335938 549.289062 L 450.042969 405 Z M 427.140625 423.324219 " fill-opacity="1" fill-rule="nonzero"/></svg>