<svg xmlns="http://www.w3.org/2000/svg" xmlns:xlink="http://www.w3.org/1999/xlink" width="1080" zoomAndPan="magnify" viewBox="0 0 810 809.999993" height="1080" preserveAspectRatio="xMidYMid meet" version="1.0"><path fill="#000000" d="M 734.476562 568.519531 C 732.675781 608.003906 726.074219 629.457031 720.589844 643.703125 C 713.226562 662.59375 704.4375 676.101562 690.191406 690.269531 C 676.101562 704.4375 662.59375 713.203125 643.703125 720.484375 C 629.457031 726.046875 607.921875 732.675781 568.441406 734.554688 C 525.757812 736.4375 513.109375 736.839844 404.871094 736.839844 C 296.726562 736.839844 283.980469 736.4375 241.296875 734.554688 C 201.816406 732.675781 180.382812 726.046875 166.132812 720.484375 C 147.144531 713.203125 133.738281 704.4375 119.570312 690.269531 C 105.300781 676.101562 96.515625 662.59375 89.25 643.703125 C 83.765625 629.457031 77.0625 608.003906 75.363281 568.519531 C 73.28125 525.835938 72.902344 512.988281 72.902344 404.96875 C 72.902344 296.726562 73.28125 283.980469 75.363281 241.296875 C 77.0625 201.816406 83.765625 180.382812 89.25 166.011719 C 96.515625 147.144531 105.300781 133.714844 119.570312 119.546875 C 133.738281 105.398438 147.144531 96.613281 166.132812 89.25 C 180.382812 83.667969 201.816406 77.144531 241.296875 75.261719 C 283.980469 73.378906 296.726562 72.902344 404.871094 72.902344 C 513.109375 72.902344 525.757812 73.378906 568.441406 75.261719 C 607.921875 77.144531 629.457031 83.667969 643.703125 89.25 C 662.59375 96.613281 676.101562 105.398438 690.191406 119.546875 C 704.4375 133.714844 713.226562 147.144531 720.589844 166.011719 C 726.074219 180.382812 732.675781 201.816406 734.476562 241.296875 C 736.453125 283.980469 736.9375 296.726562 736.9375 404.96875 C 736.9375 512.988281 736.453125 525.835938 734.476562 568.519531 Z M 807.378906 237.972656 C 805.394531 194.828125 798.589844 165.351562 788.488281 139.679688 C 778.203125 113.042969 764.414062 90.472656 741.839844 67.898438 C 719.367188 45.425781 696.792969 31.636719 670.15625 21.230469 C 644.386719 11.226562 615.007812 4.339844 571.84375 2.460938 C 528.679688 0.378906 514.890625 0 404.871094 0 C 294.945312 0 281.058594 0.378906 237.894531 2.460938 C 194.828125 4.339844 165.472656 11.226562 139.578125 21.230469 C 113.042969 31.636719 90.472656 45.425781 68 67.898438 C 45.425781 90.472656 31.636719 113.042969 21.253906 139.679688 C 11.246094 165.351562 4.441406 194.828125 2.359375 237.972656 C 0.480469 281.140625 0 294.945312 0 404.96875 C 0 514.890625 0.480469 528.679688 2.359375 571.84375 C 4.441406 614.90625 11.246094 644.367188 21.253906 670.15625 C 31.636719 696.691406 45.425781 719.367188 68 741.839844 C 90.472656 764.308594 113.042969 778.203125 139.578125 788.585938 C 165.472656 798.589844 194.828125 805.394531 237.894531 807.378906 C 281.058594 809.359375 294.945312 809.835938 404.871094 809.835938 C 514.890625 809.835938 528.679688 809.359375 571.84375 807.378906 C 615.007812 805.394531 644.386719 798.589844 670.15625 788.585938 C 696.792969 778.203125 719.367188 764.308594 741.839844 741.839844 C 764.414062 719.367188 778.203125 696.691406 788.488281 670.15625 C 798.589844 644.367188 805.394531 614.90625 807.378906 571.84375 C 809.359375 528.679688 809.835938 514.890625 809.835938 404.96875 C 809.835938 294.945312 809.359375 281.140625 807.378906 237.972656 Z M 807.378906 237.972656 " fill-opacity="1" fill-rule="nonzero"/><path fill="#000000" d="M 404.871094 539.824219 C 330.367188 539.824219 269.914062 479.46875 269.914062 404.96875 C 269.914062 330.34375 330.367188 269.914062 404.871094 269.914062 C 479.390625 269.914062 539.925781 330.34375 539.925781 404.96875 C 539.925781 479.46875 479.390625 539.824219 404.871094 539.824219 Z M 404.871094 196.910156 C 290.023438 196.910156 197.011719 290.121094 197.011719 404.96875 C 197.011719 519.714844 290.023438 612.824219 404.871094 612.824219 C 519.714844 612.824219 612.824219 519.714844 612.824219 404.96875 C 612.824219 290.121094 519.714844 196.910156 404.871094 196.910156 Z M 404.871094 196.910156 " fill-opacity="1" fill-rule="nonzero"/></svg>